<svg xmlns="http://www.w3.org/2000/svg" width="40" height="40" viewBox="0 0 40 40">
  <g fill="none" fill-rule="evenodd" transform="translate(7 6)">
    <polygon fill="#F2F5FA" points="1 9 1 18 10 18 23 24.5 23 19"/>
    <path stroke="#CFD6E6" stroke-width="2" d="M10,7 L10,19 L2,19 C0.8954305,19 1.3527075e-16,18.1045695 0,17 L0,9 C-1.3527075e-16,7.8954305 0.8954305,7 2,7 L10,7 Z"/>
    <path fill="#F2F5FA" stroke="#CFD6E6" stroke-width="2" d="M25,16.8739825 C26.7252272,16.4299397 28,14.8638394 28,13 C28,11.1361606 26.7252272,9.57006028 25,9.12601749 L25,16.8739825 Z"/>
    <path stroke="#CFD6E6" stroke-linejoin="round" stroke-width="2" d="M3 19L5 25.5C5.66666667 26.8333333 6.66666667 27.3333333 8 27 9.33333333 26.6666667 10 25.8333333 10 24.5L8 19M10 7L22.5527864.723606798C23.0467649.476617549 23.6474379.676841896 23.8944272 1.17082039 23.9638549 1.30967583 24 1.46278889 24 1.61803399L24 24.381966C24 24.9342508 23.5522847 25.381966 23 25.381966 22.8447549 25.381966 22.6916418 25.3458209 22.5527864 25.2763932L10 19 10 7z"/>
  </g>
</svg>
